<?xml version="1.0" standalone="no"?>
<!DOCTYPE svg PUBLIC "-//W3C//DTD SVG 20010904//EN"
 "http://www.w3.org/TR/2001/REC-SVG-20010904/DTD/svg10.dtd">
<svg version="1.0" xmlns="http://www.w3.org/2000/svg"
 width="1024.000000pt" height="1024.000000pt" viewBox="0 0 1024.000000 1024.000000"
 preserveAspectRatio="xMidYMid meet">

<g transform="translate(0.000000,1024.000000) scale(0.100000,-0.100000)"
fill="#000000" stroke="none">
<path d="M5089 8573 c-12 -13 -13 -102 -10 -507 2 -270 7 -501 12 -513 6 -15
17 -23 33 -23 51 0 51 -4 54 523 2 430 1 492 -13 513 -18 28 -56 32 -76 7z"/>
<path d="M4562 8474 c-12 -8 -22 -25 -22 -37 0 -12 19 -83 41 -157 23 -74 46
-151 51 -170 50 -182 162 -569 170 -582 18 -36 78 -19 78 22 0 16 -45 185 -99
377 -55 191 -109 386 -121 433 -33 127 -51 147 -98 114z"/>
<path d="M5632 8477 c-6 -7 -23 -57 -37 -112 -15 -55 -46 -167 -70 -250 -61
-206 -142 -502 -150 -546 -8 -44 14 -72 53 -67 33 4 32 1 122 343 39 149 90
331 114 405 58 181 60 196 36 220 -23 23 -53 26 -68 7z"/>
<path d="M6103 8270 c-10 -10 -59 -92 -107 -182 -49 -90 -143 -259 -209 -377
-129 -230 -150 -276 -136 -302 13 -26 40 -31 60 -13 24 22 204 332 296 512 42
81 88 165 103 187 39 58 70 121 70 144 0 18 -34 51 -52 51 -4 0 -15 -9 -25
-20z"/>
<path d="M4092 8268 c-21 -21 -13 -51 31 -128 59 -102 167 -291 211 -370 206
-370 209 -375 246 -375 59 0 52 38 -35 185 -44 75 -166 295 -260 470 -128 238
-122 230 -153 230 -16 0 -33 -5 -40 -12z"/>
<path d="M3623 8040 c-12 -5 -25 -21 -29 -36 -8 -32 30 -75 70 -77 19 -2 26
-7 26 -23 0 -27 156 -199 455 -502 194 -196 235 -233 255 -230 19 2 26 10 28
30 3 23 -17 48 -125 160 -70 74 -200 210 -288 303 -88 93 -190 200 -227 237
-36 37 -69 76 -73 87 -6 20 -51 62 -64 60 -3 0 -16 -4 -28 -9z"/>
<path d="M6569 8013 c-13 -21 -87 -101 -165 -178 -188 -187 -557 -589 -568
-620 -13 -32 11 -60 42 -51 20 7 236 228 513 526 74 79 164 175 202 213 51 53
67 75 67 97 0 29 -22 50 -54 50 -8 0 -25 -17 -37 -37z"/>
<path d="M6967 7693 c-13 -12 -7 -68 9 -91 20 -29 59 -29 79 2 16 25 12 49
-13 79 -15 17 -62 23 -75 10z"/>
<path d="M3202 7678 c-31 -31 6 -88 58 -88 45 0 66 52 34 84 -18 19 -75 21
-92 4z"/>
<path d="M6845 7574 c-16 -8 -68 -44 -115 -79 -160 -120 -389 -274 -545 -368
-162 -97 -202 -142 -160 -177 20 -17 66 0 135 50 30 22 113 76 183 120 119 75
373 246 513 347 34 24 64 50 67 58 6 13 -27 65 -41 65 -4 0 -20 -7 -37 -16z"/>
<path d="M3343 7554 c-8 -22 10 -57 44 -83 30 -24 362 -240 648 -423 93 -59
177 -108 187 -108 20 0 42 35 34 55 -7 18 -745 513 -836 560 -37 19 -69 19
-77 -1z"/>
<path d="M7275 7195 c-56 -55 -4 -122 66 -85 25 14 25 64 -1 90 -26 26 -36 25
-65 -5z"/>
<path d="M2974 7158 c-28 -35 -26 -38 53 -74 300 -137 608 -258 823 -323 74
-23 166 -50 203 -62 83 -25 99 -21 95 23 -4 40 -10 44 -194 101 -76 24 -166
55 -199 70 -111 48 -519 205 -615 237 -121 40 -153 45 -166 28z"/>
<path d="M7060 7101 c-145 -53 -515 -194 -572 -219 -25 -11 -102 -37 -170 -57
-189 -55 -221 -75 -210 -127 5 -24 43 -23 140 2 129 33 450 149 597 215 33 15
124 51 202 80 187 69 223 93 193 130 -19 23 -66 17 -180 -24z"/>
<path d="M2916 6578 c-19 -27 -21 -77 -3 -82 6 -2 125 -11 262 -21 138 -9 367
-25 510 -35 346 -26 437 -26 458 -2 46 50 7 72 -128 72 -52 0 -187 11 -302 24
-114 14 -278 30 -363 36 -85 6 -202 15 -260 20 -147 14 -157 13 -174 -12z"/>
<path d="M6319 6521 c-97 -10 -181 -21 -187 -25 -7 -4 -12 -21 -12 -38 l0 -31
233 6 c232 6 329 17 378 42 29 15 34 41 10 51 -33 14 -253 12 -422 -5z"/>
<path d="M3800 6159 c-96 -16 -236 -38 -310 -49 -155 -24 -292 -53 -367 -76
-39 -12 -53 -22 -53 -35 0 -15 8 -19 38 -20 20 -1 42 -1 47 -1 6 1 87 6 180
11 95 6 212 20 265 31 118 26 304 56 433 70 75 9 111 8 153 -1 48 -11 57 -10
71 4 14 13 14 20 3 47 -7 17 -21 35 -31 40 -36 20 -248 9 -429 -21z"/>
<path d="M6027 6162 c-20 -22 -22 -62 -3 -87 12 -16 18 -17 59 -7 25 7 66 12
91 12 25 0 46 4 46 9 0 5 9 11 20 14 29 7 25 20 -12 39 -78 40 -174 50 -201
20z"/>
<path d="M6507 6035 c3 -8 9 -12 14 -9 12 7 11 11 -5 17 -10 4 -13 1 -9 -8z"/>
<path d="M6409 6028 c-1 -7 -1 -19 0 -25 3 -19 -29 -16 -36 3 -4 12 -8 13 -14
3 -19 -32 29 -40 66 -11 22 18 22 19 4 30 -15 10 -19 9 -20 0z"/>
<path d="M6540 6029 c0 -5 5 -7 10 -4 6 3 10 8 10 11 0 2 -4 4 -10 4 -5 0 -10
-5 -10 -11z"/>
<path d="M6277 6000 c-9 -11 -13 -20 -9 -20 4 0 -4 -6 -18 -13 -13 -7 -29 -21
-35 -32 -6 -11 -34 -59 -62 -107 -79 -132 -108 -210 -141 -379 -40 -204 -45
-266 -32 -390 14 -134 33 -203 86 -314 45 -95 128 -193 138 -164 69 192 133
333 184 404 19 28 50 76 67 108 l32 59 -24 91 c-43 170 -47 241 -28 442 9 99
17 194 17 210 0 24 1 26 7 11 8 -21 24 -8 18 16 -2 7 -2 10 0 6 9 -17 21 -7
16 13 -3 12 -11 18 -19 15 -13 -5 -18 5 -15 26 0 4 -6 5 -14 2 -18 -7 -19 -21
-2 -27 6 -2 8 -8 4 -13 -5 -5 -13 -1 -18 9 -7 12 -17 16 -30 12 -13 -4 -28 0
-39 10 -10 9 -25 14 -32 10 -7 -3 -5 0 5 8 21 17 22 27 2 27 -8 0 -15 -5 -15
-11 0 -8 -4 -8 -13 -1 -10 9 -17 6 -30 -8z m33 -20 c0 -5 -2 -10 -4 -10 -3 0
-8 5 -11 10 -3 6 -1 10 4 10 6 0 11 -4 11 -10z m-5 -28 c-3 -3 -11 0 -18 7 -9
10 -8 11 6 5 10 -3 15 -9 12 -12z m50 -11 c3 -5 2 -12 -3 -15 -5 -3 -9 1 -9 9
0 17 3 19 12 6z m70 -21 c-3 -5 -1 -10 6 -10 7 0 10 -3 6 -6 -9 -9 -28 6 -22
17 4 5 8 9 11 9 3 0 2 -4 -1 -10z m-94 -37 c13 -16 12 -17 -3 -4 -10 7 -18 15
-18 17 0 8 8 3 21 -13z"/>
<path d="M6568 6003 c7 -3 16 -2 19 1 4 3 -2 6 -13 5 -11 0 -14 -3 -6 -6z"/>
<path d="M6626 5988 c3 -5 10 -6 15 -3 13 9 11 12 -6 12 -8 0 -12 -4 -9 -9z"/>
<path d="M6475 5980 c-3 -5 -2 -10 4 -10 5 0 13 5 16 10 3 6 2 10 -4 10 -5 0
-13 -4 -16 -10z"/>
<path d="M6660 5970 c0 -5 9 -10 21 -10 11 0 17 5 14 10 -3 6 -13 10 -21 10
-8 0 -14 -4 -14 -10z"/>
<path d="M6732 5960 c0 -14 2 -19 5 -12 2 6 2 18 0 25 -3 6 -5 1 -5 -13z"/>
<path d="M6570 5956 c0 -7 10 -16 23 -19 20 -5 20 -5 5 7 -10 7 -15 16 -11 19
3 4 1 7 -5 7 -7 0 -12 -6 -12 -14z"/>
<path d="M6625 5951 c-3 -6 -2 -11 3 -11 5 0 12 -10 15 -21 4 -17 3 -19 -6
-10 -15 15 -37 14 -37 -3 0 -9 -7 -12 -20 -9 -11 3 -17 10 -13 17 3 6 3 8 -1
4 -5 -4 -9 -35 -11 -70 -18 -425 -18 -423 0 -504 l17 -79 35 40 c19 22 55 72
80 110 25 39 74 104 109 146 35 42 60 79 56 83 -4 4 -1 6 6 4 8 -1 19 6 25 17
7 11 15 22 18 25 10 8 7 40 -4 40 -5 0 -7 -7 -3 -15 3 -8 2 -14 -2 -14 -24 4
-41 -3 -46 -18 -2 -10 -2 0 1 21 4 28 2 37 -6 32 -6 -4 -11 -13 -11 -21 0 -8
-4 -16 -10 -20 -5 -3 -8 7 -5 25 2 17 -1 30 -7 30 -6 0 -8 3 -5 6 4 4 13 2 20
-5 11 -9 17 -7 28 6 8 9 9 14 2 10 -6 -4 -15 -2 -19 4 -4 7 -3 9 2 6 6 -3 16
-1 24 4 12 7 11 10 -7 15 -13 4 -24 14 -25 23 0 9 -2 21 -2 28 -1 6 -12 23
-24 36 -23 25 -26 54 -7 70 6 5 4 7 -5 4 -8 -2 -16 -9 -16 -15 -1 -7 -2 -17
-3 -24 -1 -9 -4 -9 -13 0 -14 14 -32 16 -23 3 3 -5 1 -12 -5 -16 -5 -3 -10 -1
-10 6 0 7 -3 9 -7 6 -3 -4 1 -15 10 -25 10 -11 13 -23 8 -31 -7 -11 -10 -9
-15 7 -4 11 -14 26 -23 34 -14 11 -15 10 -8 -12 4 -14 13 -28 19 -32 6 -4 7
-8 1 -8 -20 0 -31 16 -30 43 1 16 -5 31 -11 35 -7 4 -13 11 -13 17 1 14 -18
18 -26 6z m139 -47 c9 -3 16 -13 16 -21 0 -8 3 -12 8 -10 4 3 12 -1 19 -8 10
-10 10 -15 0 -23 -13 -11 -51 5 -54 23 -1 6 -5 18 -8 28 -8 19 -5 20 19 11z
m-94 -74 c0 -5 -2 -10 -4 -10 -3 0 -8 5 -11 10 -3 6 -1 10 4 10 6 0 11 -4 11
-10z m30 -21 c0 -6 -4 -7 -10 -4 -5 3 -10 11 -10 16 0 6 5 7 10 4 6 -3 10 -11
10 -16z m111 11 c1 -3 3 -15 4 -28 2 -21 1 -22 -16 -6 -16 15 -17 14 -12 -5 4
-16 1 -21 -13 -21 -14 0 -15 3 -6 8 7 5 10 16 6 25 -7 20 -20 22 -27 5 -4 -8
-6 -7 -6 4 -1 16 15 23 52 24 9 0 18 -3 18 -6z m-84 -42 c-3 -8 -6 -5 -6 6 -1
11 2 17 5 13 3 -3 4 -12 1 -19z m23 -64 c0 -3 -7 -1 -15 6 -8 7 -15 17 -15 22
0 5 7 3 15 -6 8 -8 15 -18 15 -22z m40 22 c0 -3 -4 -8 -10 -11 -5 -3 -10 -1
-10 4 0 6 5 11 10 11 6 0 10 -2 10 -4z m10 -20 c0 -2 -8 -10 -17 -17 -16 -13
-17 -12 -4 4 13 16 21 21 21 13z m8 -77 c-3 -8 -7 -3 -11 10 -4 17 -3 21 5 13
5 -5 8 -16 6 -23z"/>
<path d="M6682 5941 c2 -7 7 -12 11 -12 12 1 9 15 -3 20 -7 2 -11 -2 -8 -8z"/>
<path d="M6813 5909 c-2 -23 3 -25 10 -4 4 8 3 16 -1 19 -4 3 -9 -4 -9 -15z"/>
<path d="M6830 5886 c0 -2 7 -7 16 -10 8 -3 12 -2 9 4 -6 10 -25 14 -25 6z"/>
<path d="M5800 5841 c-14 -28 -15 -27 43 -88 66 -71 123 -113 154 -113 44 0
25 57 -47 136 -75 83 -128 105 -150 65z"/>
<path d="M6867 5835 c-10 -9 -15 -20 -12 -23 3 -4 10 0 14 7 5 7 13 11 19 7 6
-3 14 -1 18 5 4 7 3 9 -4 5 -5 -3 -12 -1 -14 5 -3 8 -10 5 -21 -6z"/>
<path d="M3898 5819 c-42 -10 -93 -50 -101 -80 -4 -16 0 -19 33 -19 50 0 149
73 129 96 -6 8 -14 14 -18 13 -3 -1 -23 -5 -43 -10z"/>
<path d="M4388 5787 c-100 -66 -273 -212 -313 -264 l-36 -47 23 -12 c27 -15
36 -10 109 53 120 103 239 197 289 225 56 32 69 50 50 73 -21 25 -52 17 -122
-28z"/>
<path d="M7082 5707 c-56 -56 -71 -78 -66 -93 4 -14 3 -15 -4 -5 -7 10 -31
-11 -101 -90 -50 -56 -115 -134 -144 -173 -153 -203 -199 -267 -195 -271 2 -3
29 1 59 9 30 8 97 19 149 26 183 21 370 67 472 115 46 21 61 24 77 15 45 -24
44 -74 -2 -104 -73 -48 -710 -172 -776 -151 -37 12 -76 -49 -178 -280 -64
-143 -87 -216 -71 -226 7 -5 63 -20 123 -35 132 -32 359 -44 471 -25 88 15
254 70 336 112 84 42 220 137 289 201 195 181 375 465 465 731 l33 97 -27 -7
c-15 -4 -37 -7 -49 -7 -12 0 -20 -3 -17 -7 2 -4 20 -5 39 -2 20 3 35 0 35 -6
0 -15 -20 -24 -21 -9 0 7 -4 3 -9 -10 -5 -12 -7 -28 -5 -35 3 -6 -4 -18 -16
-25 -12 -8 -18 -9 -15 -4 3 6 3 12 -1 15 -5 2 -3 2 4 1 7 -2 15 1 18 6 4 6 -2
10 -12 10 -10 0 -14 4 -8 8 15 11 16 32 1 26 -7 -3 -16 2 -19 10 -4 10 -13 13
-24 10 -12 -4 -10 1 7 15 l25 20 -30 -3 c-24 -3 -30 -8 -27 -26 2 -19 0 -21
-12 -11 -9 8 -16 8 -20 2 -4 -5 -2 -12 4 -16 5 -3 10 -12 10 -18 0 -7 -5 -4
-11 6 -5 9 -15 17 -20 17 -6 0 -7 -5 -3 -12 4 -7 3 -8 -5 -4 -6 4 -9 12 -6 17
4 5 2 9 -3 9 -5 0 -12 -9 -15 -21 -3 -12 -10 -18 -17 -14 -6 4 -18 -1 -26 -11
-8 -12 -13 -13 -12 -5 2 7 -3 16 -11 19 -8 3 -11 0 -7 -7 5 -7 1 -9 -11 -5
-16 5 -16 4 1 -10 11 -9 15 -16 9 -16 -7 0 -15 5 -18 10 -3 6 -11 10 -16 10
-6 0 -7 -5 -3 -12 5 -7 3 -8 -5 -3 -7 4 -11 20 -9 34 3 21 -1 30 -19 38 -13 6
-21 7 -17 2 3 -5 1 -9 -4 -9 -5 0 -14 10 -21 23 l-11 22 6 -22 c4 -18 2 -22
-10 -17 -9 4 -16 1 -16 -6 0 -7 8 -10 20 -7 11 3 18 1 14 -4 -8 -13 -44 -11
-44 3 0 6 -3 8 -6 5 -4 -4 -2 -13 5 -21 9 -11 6 -13 -18 -12 -16 0 -27 4 -24
9 2 4 9 4 15 1 8 -5 9 -1 5 10 -4 10 -7 22 -7 27 0 6 -5 7 -10 4 -6 -4 -8 -11
-4 -16 3 -6 -2 -19 -11 -29 -10 -11 -12 -20 -6 -24 5 -4 13 -2 16 4 4 7 11 8
18 1 7 -5 15 -10 20 -10 4 -1 7 -3 7 -6 0 -4 -6 -6 -12 -4 -23 7 -38 5 -38 -4
0 -6 -7 -1 -16 11 -8 12 -20 19 -26 16 -7 -4 -8 -2 -4 5 4 6 12 9 17 6 5 -4 9
-2 9 4 0 5 -6 12 -12 14 -8 3 -6 6 5 6 9 1 17 5 17 11 0 5 -10 8 -22 7 -13 -1
-24 2 -25 7 -1 5 -6 12 -12 16 -7 3 -13 21 -14 38 -1 18 -6 32 -11 32 -5 0
-14 7 -20 16 -11 14 -13 14 -25 1 -9 -12 -9 -17 0 -23 7 -4 9 -3 5 4 -3 6 -3
13 2 16 4 2 13 -4 20 -14 10 -16 9 -21 -9 -30 -14 -8 -18 -17 -13 -32 4 -14 3
-18 -5 -13 -7 4 -11 14 -10 23 3 33 -1 42 -21 42 -11 0 -19 -6 -17 -12 1 -7
-4 -12 -11 -10 -10 2 -10 -2 -2 -17 6 -11 9 -26 8 -33 -2 -6 3 -12 11 -13 8 0
15 -6 17 -13 1 -7 0 -8 -3 -2 -2 5 -8 8 -13 5 -4 -3 -13 2 -20 10 -7 8 -10 15
-6 15 4 0 -1 12 -11 27 -13 19 -14 28 -5 31 6 2 12 8 12 14 0 6 -7 8 -15 4 -8
-3 -15 0 -15 6 0 7 -4 7 -14 -1 -8 -6 -18 -10 -24 -9 -5 2 -10 -1 -10 -7 0 -5
4 -9 9 -7 14 3 10 -15 -7 -32 -18 -19 -34 -13 -34 12 0 15 2 15 10 2 5 -8 10
-10 10 -4 0 22 -14 23 -37 2 -13 -12 -23 -17 -23 -11 0 6 -15 10 -32 8 -18 -1
-25 0 -15 2 9 2 17 7 18 11 6 47 5 52 -12 52 -10 0 -20 -8 -22 -17 -3 -11 -5
-7 -6 10 -1 19 -5 26 -13 21 -7 -4 -8 -3 -4 5 4 6 12 9 17 6 5 -4 9 0 9 7 0 7
17 32 39 56 63 69 31 48 -47 -31z m-40 -99 c-7 -7 -12 -8 -12 -2 0 14 12 26
19 19 2 -3 -1 -11 -7 -17z m43 -7 c-6 -5 -25 10 -25 20 0 5 6 4 14 -3 8 -7 12
-15 11 -17z m185 9 c0 -5 -5 -10 -11 -10 -5 0 -7 5 -4 10 3 6 8 10 11 10 2 0
4 -4 4 -10z m146 -27 c-2 -10 2 -22 8 -26 8 -6 7 -10 -1 -14 -16 -6 -17 -35
-1 -51 7 -7 8 -12 3 -12 -5 0 0 -7 11 -16 18 -14 18 -15 -4 -4 -12 6 -20 15
-17 20 3 4 -9 20 -27 35 -20 16 -24 22 -11 16 21 -11 22 -10 16 20 -4 21 -2
34 8 40 18 11 18 12 15 -8z m-146 -3 c0 -5 -2 -10 -4 -10 -3 0 -8 5 -11 10 -3
6 -1 10 4 10 6 0 11 -4 11 -10z m80 -5 c0 -8 -4 -15 -9 -15 -13 0 -22 16 -14
24 11 11 23 6 23 -9z m-250 -14 c0 -6 -4 -13 -10 -16 -5 -3 -10 1 -10 9 0 9 5
16 10 16 6 0 10 -4 10 -9z m33 -22 c-7 -25 -10 -24 -15 5 -3 16 -1 23 7 19 7
-2 11 -13 8 -24z m157 15 c0 -8 -19 -13 -24 -6 -3 5 1 9 9 9 8 0 15 -2 15 -3z
m-109 -21 c13 -16 12 -17 -3 -4 -10 7 -18 15 -18 17 0 8 8 3 21 -13z m269 -33
c0 -11 -2 -20 -4 -20 -2 0 -6 9 -9 20 -3 11 -1 20 4 20 5 0 9 -9 9 -20z m196
8 c4 -7 3 -8 -4 -4 -7 4 -12 3 -12 -1 0 -5 -6 -17 -13 -28 -11 -14 -16 -15
-22 -5 -5 9 -4 11 3 6 7 -4 12 -2 12 3 0 6 -8 12 -17 12 -17 1 -17 2 0 6 9 2
17 9 17 14 0 13 27 11 36 -3z m254 8 c0 -2 -7 -7 -16 -10 -8 -3 -12 -2 -9 4 6
10 25 14 25 6z m-582 -37 c-3 -8 -7 -3 -11 10 -4 17 -3 21 5 13 5 -5 8 -16 6
-23z m63 7 c-8 -10 -9 -16 -1 -19 6 -3 6 -5 -1 -3 -18 3 -20 36 -2 36 12 0 13
-3 4 -14z m609 10 c0 -3 -4 -8 -10 -11 -5 -3 -10 -1 -10 4 0 6 5 11 10 11 6 0
10 -2 10 -4z m-166 -21 c-4 -8 -8 -15 -10 -15 -2 0 -4 7 -4 15 0 8 4 15 10 15
5 0 7 -7 4 -15z m77 -2 c13 -17 13 -17 -6 -3 -11 8 -22 16 -24 17 -2 2 0 3 6
3 6 0 17 -8 24 -17z m-131 -7 c0 -2 -7 -7 -16 -10 -8 -3 -12 -2 -9 4 6 10 25
14 25 6z m120 -18 c0 -4 -4 -8 -9 -8 -6 0 -12 4 -15 8 -3 5 1 9 9 9 8 0 15 -4
15 -9z m-520 -18 c0 -5 -2 -10 -4 -10 -3 0 -8 5 -11 10 -3 6 -1 10 4 10 6 0
11 -4 11 -10z m157 4 c-3 -3 -12 -4 -19 -1 -8 3 -5 6 6 6 11 1 17 -2 13 -5z
m390 -16 c-3 -8 -6 -5 -6 6 -1 11 2 17 5 13 3 -3 4 -12 1 -19z m43 4 c0 -5 -7
-9 -15 -9 -8 0 -12 4 -9 9 3 4 9 8 15 8 5 0 9 -4 9 -8z m-40 -26 c0 -2 -7 -7
-16 -10 -8 -3 -12 -2 -9 4 6 10 25 14 25 6z m-239 -23 c13 -16 12 -17 -3 -4
-10 7 -18 15 -18 17 0 8 8 3 21 -13z"/>
<path d="M6925 5749 c-4 -6 -5 -12 -2 -15 2 -3 7 2 10 11 7 17 1 20 -8 4z"/>
<path d="M6860 5726 c0 -9 5 -16 10 -16 6 0 10 4 10 9 0 6 -4 13 -10 16 -5 3
-10 -1 -10 -9z"/>
<path d="M7221 5726 c-10 -12 -8 -13 8 -9 12 3 21 9 21 14 0 14 -16 11 -29 -5z"/>
<path d="M7165 5720 c3 -5 10 -10 16 -10 5 0 9 5 9 10 0 6 -7 10 -16 10 -8 0
-12 -4 -9 -10z"/>
<path d="M7110 5694 c-12 -32 -12 -34 0 -34 6 0 10 9 10 19 0 11 5 23 12 27 6
4 8 3 4 -4 -3 -6 -3 -13 2 -16 4 -2 9 4 9 15 2 28 -26 23 -37 -7z"/>
<path d="M7170 5685 c-7 -8 -18 -15 -24 -15 -7 0 -12 -16 -12 -40 0 -30 3 -37
12 -29 8 7 14 6 17 -3 3 -8 6 -6 6 5 1 10 5 16 10 12 21 -13 42 28 32 63 -1 1
-14 -12 -29 -29 -25 -28 -28 -29 -28 -10 0 12 6 21 12 21 6 0 14 9 17 20 6 24
4 25 -13 5z"/>
<path d="M5644 5665 c-13 -32 159 -356 219 -413 23 -22 39 -31 51 -26 35 13 9
83 -121 324 -67 123 -68 125 -106 128 -27 2 -39 -1 -43 -13z"/>
<path d="M7400 5669 c0 -5 5 -7 10 -4 6 3 10 8 10 11 0 2 -4 4 -10 4 -5 0 -10
-5 -10 -11z"/>
<path d="M7436 5664 c-8 -20 -8 -24 2 -24 4 0 8 9 9 20 2 24 -3 26 -11 4z"/>
<path d="M7763 5673 c4 -3 1 -13 -6 -22 -11 -14 -10 -14 5 -2 16 12 16 31 1
31 -4 0 -3 -3 0 -7z"/>
<path d="M4493 5650 c-45 -27 -118 -128 -165 -227 -41 -88 -54 -133 -44 -159
11 -29 84 42 154 150 69 107 132 223 132 244 0 18 -41 14 -77 -8z"/>
<path d="M7237 5663 c-10 -9 -9 -23 1 -23 5 0 9 7 9 15 0 17 -1 18 -10 8z"/>
<path d="M7310 5652 c0 -10 7 -19 14 -19 11 0 13 5 5 19 -5 10 -12 18 -14 18
-3 0 -5 -8 -5 -18z"/>
<path d="M7875 5650 c3 -5 8 -10 11 -10 2 0 4 5 4 10 0 6 -5 10 -11 10 -5 0
-7 -4 -4 -10z"/>
<path d="M7909 5643 c-13 -16 -12 -17 4 -4 9 7 17 15 17 17 0 8 -8 3 -21 -13z"/>
<path d="M7796 5642 c-3 -5 1 -9 9 -9 8 0 12 4 9 9 -3 4 -7 8 -9 8 -2 0 -6 -4
-9 -8z"/>
<path d="M7696 5613 c-6 -14 -5 -15 5 -6 7 7 10 15 7 18 -3 3 -9 -2 -12 -12z"/>
<path d="M7810 5612 c0 -6 4 -12 9 -14 4 -1 12 -14 16 -28 6 -20 5 -23 -6 -12
-7 6 -26 12 -41 12 -17 0 -28 -5 -27 -12 3 -23 -1 -38 -10 -38 -4 0 -7 13 -5
30 2 16 0 32 -5 34 -5 3 -9 0 -8 -7 1 -46 -3 -59 -17 -48 -10 9 -16 9 -21 1
-19 -31 42 -34 78 -4 16 13 23 24 16 24 -7 0 -10 2 -7 5 9 9 38 -7 32 -17 -5
-7 0 -7 12 0 12 7 19 22 19 40 0 17 -2 28 -4 26 -2 -2 -10 1 -18 7 -8 8 -13 8
-13 1z"/>
<path d="M7870 5605 c7 -8 17 -15 22 -15 5 0 3 7 -6 15 -8 8 -18 15 -22 15 -3
0 -1 -7 6 -15z"/>
<path d="M7992 5605 c4 -7 5 -14 2 -17 -2 -3 2 -8 10 -11 9 -4 18 -1 22 6 4 7
4 9 -1 5 -4 -4 -15 1 -24 10 -9 10 -13 13 -9 7z"/>
<path d="M7769 5593 c-13 -16 -12 -17 4 -4 9 7 17 15 17 17 0 8 -8 3 -21 -13z"/>
<path d="M4792 5576 c-19 -24 -172 -478 -172 -510 0 -8 13 -22 29 -31 54 -28
71 0 141 240 92 312 87 285 61 307 -30 23 -36 23 -59 -6z"/>
<path d="M5398 5589 c-32 -18 -25 -49 103 -504 107 -378 100 -360 129 -363 14
-2 33 3 44 11 17 13 16 19 -23 173 -23 87 -57 209 -75 269 -19 61 -51 171 -71
245 -49 177 -62 196 -107 169z"/>
<path d="M7454 5588 c-3 -5 -2 -8 3 -7 20 3 25 -2 13 -16 -10 -12 -10 -15 2
-15 8 0 14 10 14 23 0 23 -21 33 -32 15z"/>
<path d="M7560 5580 c0 -5 5 -10 11 -10 5 0 7 5 4 10 -3 6 -8 10 -11 10 -2 0
-4 -4 -4 -10z"/>
<path d="M7653 5568 c-1 -10 3 -21 9 -24 8 -5 9 -1 5 12 -7 18 -7 18 8 0 15
-19 15 -19 15 4 0 23 0 23 15 4 14 -19 14 -19 9 2 -7 27 -59 28 -61 2z"/>
<path d="M5090 5551 c-6 -13 -10 -146 -10 -365 0 -300 2 -347 16 -360 20 -20
60 -21 68 -1 3 9 6 176 6 372 1 281 -2 358 -12 364 -23 15 -57 10 -68 -10z"/>
<path d="M7670 5500 c0 -5 5 -10 11 -10 5 0 7 5 4 10 -3 6 -8 10 -11 10 -2 0
-4 -4 -4 -10z"/>
<path d="M1560 5009 c0 -5 5 -7 10 -4 6 3 10 8 10 11 0 2 -4 4 -10 4 -5 0 -10
-5 -10 -11z"/>
<path d="M1532 4980 c0 -14 2 -19 5 -12 2 6 2 18 0 25 -3 6 -5 1 -5 -13z"/>
<path d="M1506 4974 c-3 -9 -6 -24 -6 -34 0 -10 -5 -22 -11 -26 -8 -4 -9 1 -4
17 8 24 8 24 -14 5 -11 -11 -21 -29 -21 -40 -1 -19 -2 -19 -11 -3 -10 17 -39
24 -39 9 0 -91 43 -448 55 -460 2 -2 39 22 82 55 43 32 109 78 146 103 36 25
67 52 67 60 0 12 2 12 9 2 15 -25 29 9 19 48 -8 29 -11 32 -19 17 -6 -9 -7
-22 -3 -28 4 -8 0 -7 -15 0 -20 11 -20 14 -6 34 17 24 20 63 6 71 -5 4 -7 -3
-4 -15 4 -12 0 -25 -8 -30 -19 -12 -32 -11 -24 1 3 6 1 10 -4 10 -6 0 -11 -5
-11 -11 0 -5 -5 -7 -10 -4 -16 10 0 27 21 22 10 -3 22 -1 25 4 3 5 -4 9 -14 9
-11 0 -23 7 -26 16 -5 12 -16 15 -41 12 -19 -2 -35 0 -35 4 0 4 -4 8 -8 8 -4
0 -8 -9 -8 -20 0 -20 25 -24 38 -5 4 5 10 7 13 3 4 -3 -3 -16 -14 -27 l-20
-20 -20 24 c-23 30 -35 32 -26 5 4 -14 2 -20 -9 -20 -12 0 -14 6 -8 23 7 21 8
51 4 105 -3 31 -22 28 -22 -4 0 -14 4 -23 10 -19 6 3 10 1 10 -4 0 -14 -10
-13 -39 3 -16 9 -20 16 -12 20 6 4 9 12 6 17 -4 5 -2 9 4 9 6 0 7 7 4 17 -4
10 -2 14 4 10 6 -4 8 3 5 18 -5 29 -8 31 -16 9z m-32 -89 c5 -22 4 -26 -4 -15
-5 8 -10 24 -10 34 0 26 6 18 14 -19z m60 -50 c-4 -8 -11 -15 -16 -15 -6 0 -5
6 2 15 7 8 14 15 16 15 2 0 1 -7 -2 -15z m-24 -35 c0 -5 -7 -10 -16 -10 -8 0
-12 5 -9 10 3 6 10 10 16 10 5 0 9 -4 9 -10z m-26 -31 c-3 -5 -13 -9 -22 -8
-11 0 -12 2 -4 6 6 2 10 9 7 14 -4 5 1 6 9 3 9 -3 13 -10 10 -15z m46 -9 c0
-5 -4 -10 -10 -10 -5 0 -10 5 -10 10 0 6 5 10 10 10 6 0 10 -4 10 -10z m87
-21 c-14 -8 -22 -8 -30 0 -8 8 -3 11 19 11 25 -1 27 -2 11 -11z m96 -15 c-3
-8 -11 -14 -19 -14 -8 0 -14 -4 -14 -10 0 -5 -8 -10 -17 -10 -17 1 -17 1 0 11
9 5 17 16 17 22 0 7 9 13 19 14 14 1 18 -3 14 -13z m17 -78 c0 -3 -4 -8 -10
-11 -5 -3 -10 -1 -10 4 0 6 5 11 10 11 6 0 10 -2 10 -4z"/>
<path d="M1561 4947 c-13 -21 -12 -21 5 -5 10 10 16 20 13 22 -3 3 -11 -5 -18
-17z"/>
<path d="M1573 4888 c2 -32 18 -42 25 -16 3 9 1 9 -6 -1 -8 -12 -12 -8 -16 17
l-6 32 3 -32z"/>
<path d="M1677 4853 c-4 -3 -7 -11 -7 -17 0 -6 5 -5 12 2 6 6 9 14 7 17 -3 3
-9 2 -12 -2z"/>
<path d="M1775 4750 c4 -6 11 -8 16 -5 14 9 11 15 -7 15 -8 0 -12 -5 -9 -10z"/>
<path d="M1500 4341 c0 -5 7 -12 16 -15 24 -9 27 -7 10 9 -17 17 -26 19 -26 6z"/>
<path d="M1683 4317 c7 -20 -22 -24 -40 -6 -13 13 -69 -7 -76 -26 -2 -5 -2 1
0 14 4 24 4 24 -21 8 -32 -22 -46 -21 -46 0 0 12 -3 14 -11 6 -13 -13 42 -230
96 -379 20 -54 39 -106 42 -115 4 -13 28 1 115 67 61 47 145 106 187 131 42
26 78 50 81 53 3 3 11 6 18 8 7 1 29 12 50 23 22 13 28 19 15 16 -18 -4 -23
-1 -23 13 0 11 -5 22 -10 25 -6 4 -8 11 -5 16 4 5 1 9 -4 9 -6 0 -11 -4 -11
-9 0 -17 -26 -19 -26 -2 -1 9 -5 25 -9 35 -6 14 -5 17 3 12 8 -5 10 -2 6 9 -5
12 -9 13 -21 3 -17 -14 -93 -24 -78 -9 6 5 19 11 30 14 14 3 10 5 -10 6 -17 0
-37 -5 -43 -11 -10 -10 -15 -10 -21 1 -5 7 -13 11 -19 7 -6 -3 -13 -2 -17 4
-4 6 -10 8 -15 5 -5 -3 -11 -1 -14 3 -3 5 6 15 19 22 13 7 27 20 30 29 4 10
-4 6 -19 -8 -18 -17 -26 -20 -26 -10 -1 9 -7 6 -20 -9 -10 -12 -21 -18 -24
-13 -4 5 0 11 6 14 7 2 -4 4 -24 4 -20 -1 -35 -5 -32 -9 3 -4 0 -8 -5 -8 -10
0 -15 20 -12 47 1 6 -4 15 -10 19 -9 5 -10 2 -6 -9z m-44 -16 c11 -7 9 -11 -8
-20 -14 -8 -21 -8 -21 -1 0 5 6 10 13 10 8 0 7 4 -3 10 -8 5 -10 10 -5 10 6 0
16 -4 24 -9z m6 -41 c3 -5 1 -10 -4 -10 -6 0 -11 5 -11 10 0 6 2 10 4 10 3 0
8 -4 11 -10z m385 -130 c0 -5 -7 -7 -15 -4 -8 4 -15 8 -15 10 0 2 7 4 15 4 8
0 15 -4 15 -10z"/>
<path d="M1710 4306 c0 -2 7 -6 15 -10 8 -3 15 -1 15 4 0 6 -7 10 -15 10 -8 0
-15 -2 -15 -4z"/>
<path d="M2730 4163 c-96 -9 -244 -38 -334 -64 -121 -36 -325 -126 -421 -187
-90 -58 -243 -172 -277 -209 l-26 -28 114 -234 c63 -129 116 -236 119 -239 2
-2 46 24 97 58 161 106 334 175 547 216 162 31 468 27 621 -8 160 -37 268 -74
456 -159 23 -10 149 -80 280 -155 625 -357 833 -438 1244 -485 58 -7 111 -16
118 -22 7 -5 12 -5 12 0 0 5 9 9 19 9 16 0 18 -4 10 -19 -6 -10 -8 -23 -5 -30
2 -7 8 -2 12 11 6 21 7 21 19 5 7 -10 11 -22 8 -28 -2 -5 3 -1 11 9 9 11 16
24 16 29 0 4 5 5 10 2 6 -3 18 1 27 10 9 10 25 14 36 11 12 -3 26 -1 32 4 6 5
34 10 62 11 29 1 51 7 50 13 -1 5 5 10 13 11 8 0 14 8 14 18 -1 9 2 14 6 12
15 -10 151 197 138 210 -3 3 -42 12 -88 20 -135 24 -402 109 -565 180 -16 8
-54 23 -84 35 -100 39 -385 188 -551 288 -95 57 -168 95 -171 89 -4 -5 -11 -7
-17 -3 -6 3 -13 0 -15 -6 -4 -10 -6 -9 -6 1 -1 10 -4 11 -15 2 -9 -8 -16 -8
-20 -2 -4 6 3 15 14 21 11 6 20 7 20 2 0 -5 7 -9 15 -9 8 0 15 3 15 7 0 7
-203 151 -224 159 -6 2 -3 -4 7 -13 13 -14 15 -22 6 -39 -10 -21 -9 -21 5 -3
18 22 49 15 40 -9 -4 -9 -13 -14 -21 -11 -8 4 -17 -4 -23 -20 -11 -29 -31 -24
-25 6 2 12 0 18 -4 15 -5 -2 -8 6 -8 20 0 14 3 22 8 19 5 -3 9 0 9 6 0 7 -7 9
-16 6 -9 -3 -17 -6 -18 -6 -2 0 -1 -11 2 -25 2 -15 0 -25 -7 -25 -6 0 -11 9
-11 20 0 18 -3 19 -20 10 -26 -14 -45 -1 -45 30 0 23 -3 25 -37 22 -33 -3 -37
-1 -31 15 6 16 5 16 -10 5 -19 -16 -39 -8 -30 13 3 9 -1 15 -11 15 -10 0 -16
9 -17 23 0 19 -1 20 -8 4 -6 -17 -8 -17 -20 -3 -7 9 -20 16 -27 16 -16 0 -19
16 -5 24 5 4 12 0 14 -6 4 -10 6 -9 6 1 1 10 4 11 14 3 9 -8 16 -6 24 8 11 17
10 18 -17 10 -21 -6 -30 -5 -30 3 0 6 -7 2 -15 -9 -14 -18 -15 -17 -10 11 5
27 4 28 -5 7 -12 -29 10 -77 39 -85 21 -5 49 -47 31 -47 -5 0 -10 7 -10 17 0
9 -3 14 -6 10 -4 -3 -13 0 -21 8 -8 8 -29 15 -46 15 -29 1 -30 2 -14 14 21 16
23 30 2 23 -8 -4 -17 -2 -20 3 -4 6 -22 10 -41 10 -19 0 -34 4 -34 8 0 4 16 6
35 4 27 -3 35 -1 35 12 0 19 -36 22 -44 4 -3 -9 -10 -7 -21 7 -16 20 -17 20
-13 0 2 -11 -1 -20 -7 -21 -5 0 -23 -6 -38 -12 -39 -17 -43 -15 -16 7 l23 18
-22 7 c-22 7 -31 26 -12 26 6 0 10 5 10 10 0 17 -28 11 -40 -7 -8 -15 -9 -14
-4 8 6 27 -8 44 -40 50 -11 2 -21 10 -24 18 -3 10 0 12 12 8 11 -4 15 -3 11 4
-4 6 -19 7 -37 4 -24 -6 -30 -3 -35 14 -5 19 -20 24 -70 21 -5 -1 -7 -12 -5
-25 2 -14 -2 -25 -8 -25 -7 0 -9 7 -6 16 4 9 1 23 -5 31 -7 7 -9 16 -5 20 3 3
6 1 6 -5 0 -9 5 -9 20 0 11 7 20 21 20 30 0 10 5 18 10 18 6 0 10 -6 10 -14 0
-8 11 -17 25 -20 18 -5 25 -13 25 -31 0 -14 5 -25 10 -25 6 0 10 9 10 20 0 16
7 20 30 20 35 0 40 -17 8 -23 -13 -2 5 -3 40 0 36 2 62 -1 62 -6 0 -17 83 -62
91 -49 4 7 11 3 18 -11 7 -12 17 -21 24 -19 18 3 102 -37 125 -60 11 -11 28
-22 39 -24 10 -2 18 -8 18 -15 0 -6 3 -15 8 -19 4 -4 7 -2 7 5 0 9 11 6 33 -8
17 -11 31 -27 29 -36 -2 -10 4 -14 20 -12 18 1 23 -3 23 -22 0 -13 7 -26 15
-28 13 -4 13 -3 0 6 -11 8 -12 13 -4 21 9 9 14 9 18 1 4 -6 12 -11 17 -11 20
0 -4 20 -89 76 -206 134 -386 225 -559 283 -198 67 -480 102 -663 84z m143
-10 c-7 -2 -19 -2 -25 0 -7 3 -2 5 12 5 14 0 19 -2 13 -5z m-8 -33 c3 -6 -1
-7 -9 -4 -18 7 -21 14 -7 14 6 0 13 -4 16 -10z m265 -9 c0 -6 -4 -13 -10 -16
-5 -3 -10 1 -10 9 0 9 5 16 10 16 6 0 10 -4 10 -9z m90 -32 c0 -5 -4 -9 -8 -9
-5 0 -9 7 -9 15 0 8 4 12 9 9 4 -3 8 -9 8 -15z m67 15 c-3 -3 -12 -4 -19 -1
-8 3 -5 6 6 6 11 1 17 -2 13 -5z m33 -16 c0 -5 -10 -8 -22 -9 -22 -1 -22 -1 2
-8 17 -5 6 -7 -35 -7 -33 0 -52 2 -42 4 10 2 16 9 14 15 -3 8 10 12 39 12 24
0 44 -3 44 -7z m-56 -53 c3 -8 1 -15 -4 -15 -6 0 -10 7 -10 15 0 8 2 15 4 15
2 0 6 -7 10 -15z m216 -105 c0 -5 -7 -10 -15 -10 -8 0 -15 5 -15 10 0 6 7 10
15 10 8 0 15 -4 15 -10z m-668 -37 c9 -10 19 -33 23 -50 6 -28 2 -37 -23 -63
-18 -17 -41 -30 -56 -30 -56 0 -88 98 -46 140 25 25 81 27 102 3z m582 -95
c33 -47 19 -102 -30 -118 -29 -10 -39 -9 -60 5 -36 23 -47 60 -29 95 17 32 27
38 72 39 22 1 37 -6 47 -21z m366 -42 c0 -11 -19 -15 -25 -6 -3 5 1 10 9 10 9
0 16 -2 16 -4z m167 -58 c-3 -8 -6 -5 -6 6 -1 11 2 17 5 13 3 -3 4 -12 1 -19z
m251 -61 c6 -5 12 -15 12 -21 0 -6 -5 -3 -11 8 -8 12 -14 15 -18 7 -4 -6 -21
-13 -37 -14 -23 -3 -30 0 -30 14 0 10 5 15 10 11 6 -3 19 -7 28 -7 14 -1 15 1
6 12 -9 11 -7 12 8 7 10 -4 25 -11 32 -17z m-24 -48 c-3 -5 -10 -7 -15 -3 -5
3 -7 10 -3 15 3 5 10 7 15 3 5 -3 7 -10 3 -15z m56 -23 c0 -3 -4 -8 -10 -11
-5 -3 -10 -1 -10 4 0 6 5 11 10 11 6 0 10 -2 10 -4z m139 -53 c11 -12 9 -13
-13 -7 -21 5 -25 3 -20 -9 3 -8 1 -18 -5 -22 -7 -3 -8 0 -5 9 3 9 2 16 -4 16
-6 0 -8 9 -5 19 5 21 27 18 52 -6z m81 -47 c0 -2 -8 -10 -17 -17 -16 -13 -17
-12 -4 4 13 16 21 21 21 13z m40 -36 c0 -5 -4 -10 -10 -10 -5 0 -10 5 -10 10
0 6 5 10 10 10 6 0 10 -4 10 -10z m335 -168 c-3 -3 -11 0 -18 7 -9 10 -8 11 6
5 10 -3 15 -9 12 -12z m350 -172 c3 -5 2 -10 -4 -10 -5 0 -13 5 -16 10 -3 6
-2 10 4 10 5 0 13 -4 16 -10z m-280 -25 c52 -51 20 -125 -54 -125 -46 0 -71
26 -71 73 0 35 40 77 75 77 14 0 37 -11 50 -25z"/>
<path d="M3565 3911 c-3 -5 -2 -12 3 -15 5 -3 9 1 9 9 0 17 -3 19 -12 6z"/>
<path d="M3835 3821 c-3 -5 -2 -12 3 -15 5 -3 9 1 9 9 0 17 -3 19 -12 6z"/>
<path d="M6927 3433 c-2 -1 -31 -3 -65 -4 -34 -1 -60 -5 -56 -8 9 -9 154 -7
154 3 0 4 11 6 25 4 14 -3 28 -1 31 4 5 8 -81 9 -89 1z"/>
<path d="M6468 3423 c6 -2 18 -2 25 0 6 3 1 5 -13 5 -14 0 -19 -2 -12 -5z"/>
<path d="M6560 3422 c0 -5 18 -8 40 -8 22 1 40 4 40 9 0 4 -18 7 -40 7 -22 0
-40 -4 -40 -8z"/>
<path d="M6650 3418 c0 -5 11 -8 25 -8 14 0 25 3 25 8 0 4 -11 7 -25 7 -14 0
-25 -3 -25 -7z"/>
<path d="M6716 3421 c-4 -5 2 -8 11 -6 10 1 23 -1 28 -5 6 -5 16 -2 23 6 11
12 7 14 -22 14 -19 0 -37 -4 -40 -9z"/>
<path d="M6785 3400 c-3 -5 -1 -10 4 -10 6 0 11 5 11 10 0 6 -2 10 -4 10 -3 0
-8 -4 -11 -10z"/>
<path d="M6718 3393 c7 -3 16 -2 19 1 4 3 -2 6 -13 5 -11 0 -14 -3 -6 -6z"/>
<path d="M2675 3384 c-187 -31 -378 -85 -485 -139 -78 -40 -209 -131 -217
-151 -3 -8 12 -38 34 -67 22 -28 86 -115 143 -192 56 -77 105 -142 107 -144 2
-3 52 18 111 46 135 65 211 89 337 108 259 39 528 -2 803 -122 57 -25 174 -87
260 -136 337 -194 548 -294 752 -356 143 -43 434 -66 511 -39 63 21 189 101
267 168 88 76 180 180 160 180 -7 1 -76 1 -153 2 -462 3 -824 130 -1445 508
-275 167 -531 275 -750 316 -76 14 -379 27 -435 18z"/>
<path d="M6735 3280 c-3 -5 -1 -10 4 -10 6 0 11 5 11 10 0 6 -2 10 -4 10 -3 0
-8 -4 -11 -10z"/>
<path d="M6600 3270 c0 -4 7 -10 15 -14 8 -3 15 -12 15 -21 0 -8 5 -15 10 -15
20 0 9 35 -15 47 -14 6 -25 8 -25 3z"/>
<path d="M6660 3270 c8 -5 20 -10 25 -10 6 0 3 5 -5 10 -8 5 -19 10 -25 10 -5
0 -3 -5 5 -10z"/>
<path d="M6091 3248 c-9 -14 -10 -23 -2 -31 19 -19 12 -31 -7 -14 -10 10 -24
17 -30 17 -6 0 -12 10 -14 22 -3 22 -78 -185 -78 -216 0 -18 38 -27 126 -28
38 -1 72 -6 76 -11 10 -16 178 12 178 30 0 7 5 13 10 13 10 0 13 -11 11 -40 0
-10 1 -11 5 -2 3 6 21 12 39 12 18 0 36 6 38 13 4 10 6 10 6 0 1 -7 5 -13 11
-13 16 0 -11 48 -31 53 -12 3 -16 11 -12 25 2 11 0 23 -6 26 -6 4 -11 12 -11
19 0 6 6 3 13 -6 8 -12 16 -14 27 -7 13 8 12 11 -5 25 -11 8 -28 13 -38 11
-15 -4 -16 -2 -6 10 8 10 8 14 0 14 -6 0 -11 -1 -11 -3 0 -1 -4 -16 -9 -34 -7
-23 -6 -31 2 -29 7 2 9 1 5 -1 -4 -2 -6 -10 -4 -16 1 -7 1 -9 -1 -4 -8 12 -23
8 -23 -7 0 -8 -7 -16 -15 -20 -21 -8 -45 3 -45 20 0 8 -7 14 -16 14 -9 0 -12
5 -8 12 5 7 3 8 -5 4 -7 -5 -10 -13 -8 -20 3 -6 -6 -12 -21 -13 -22 -1 -23 0
-9 9 10 5 14 14 11 20 -4 7 -2 8 4 4 7 -4 12 -1 12 9 0 9 -4 13 -10 10 -5 -3
-10 3 -10 15 0 13 -4 19 -11 14 -6 -3 -9 -19 -5 -35 4 -22 2 -29 -9 -29 -8 0
-15 -5 -15 -12 0 -6 -3 -8 -7 -4 -5 4 1 14 11 22 11 8 14 14 8 14 -8 0 -10 9
-7 23 2 12 1 38 -4 57 -7 29 -9 31 -10 10 -1 -20 -3 -22 -12 -10 -8 12 -9 11
-5 -6 4 -11 0 -29 -8 -40 -14 -17 -15 -15 -10 25 5 42 4 43 -13 25 -17 -17
-18 -17 -21 4 -2 12 -8 22 -13 22 -6 0 -5 8 1 21 15 28 8 34 -9 7z m69 -158
c8 -5 11 -10 5 -10 -5 0 -17 5 -25 10 -8 5 -10 10 -5 10 6 0 17 -5 25 -10z
m70 -40 c18 -12 2 -12 -25 0 -13 6 -15 9 -5 9 8 0 22 -4 30 -9z m55 0 c4 -6
11 -8 16 -5 5 4 9 -1 9 -9 0 -9 -5 -16 -11 -16 -11 0 -39 24 -39 34 0 10 18 7
25 -4z m115 1 c0 -5 -12 -8 -26 -8 -18 0 -22 2 -13 8 18 11 39 11 39 0z"/>
<path d="M6581 3244 c0 -11 3 -14 6 -6 3 7 2 16 -1 19 -3 4 -6 -2 -5 -13z"/>
<path d="M5640 3242 c0 -5 12 -22 26 -38 24 -26 25 -27 13 -4 -14 29 -39 55
-39 42z"/>
<path d="M6678 3238 c-5 -11 0 -18 13 -21 12 -3 19 0 19 10 0 8 -4 12 -9 9 -5
-4 -11 -1 -13 6 -3 8 -6 6 -10 -4z"/>
<path d="M6430 3210 c0 -19 3 -21 12 -12 9 9 9 15 0 24 -9 9 -12 7 -12 -12z"/>
<path d="M6547 3201 c3 -11 -2 -30 -11 -42 -15 -22 -15 -21 -9 16 5 29 3 36
-6 31 -7 -5 -10 -13 -8 -20 3 -6 -1 -20 -9 -31 -8 -10 -14 -27 -14 -37 0 -24
-16 -23 -23 2 -3 11 -1 20 5 20 5 0 6 5 3 10 -3 6 -1 10 6 10 25 0 0 11 -35
15 l-37 5 26 -27 c29 -32 30 -39 12 -50 -20 -12 -29 -43 -12 -43 14 0 58 -54
50 -61 -2 -3 10 -5 27 -4 17 0 32 6 34 13 1 7 0 8 -3 2 -6 -12 -23 -4 -23 11
0 6 5 7 10 4 6 -3 10 2 11 12 0 12 4 9 11 -9 8 -23 15 -27 44 -26 19 1 34 5
34 10 0 5 8 5 18 0 9 -5 22 -8 27 -6 6 1 36 8 68 14 31 6 55 16 51 21 -3 5
-10 7 -15 4 -12 -8 -11 1 2 28 l10 22 -19 -21 c-13 -16 -26 -20 -45 -17 -33 6
-35 20 -5 25 23 3 39 38 19 38 -6 0 -11 -8 -11 -17 0 -31 -20 8 -21 42 l-1 30
-8 -30 -8 -30 -1 28 c-1 16 -7 27 -15 27 -8 0 -22 3 -32 7 -12 4 -15 3 -10 -6
8 -13 -2 -71 -13 -71 -4 0 -8 9 -9 20 -4 43 -6 50 -13 50 -4 0 -10 -6 -12 -12
-3 -8 -6 -6 -6 5 -1 9 -5 17 -11 17 -5 0 -10 9 -10 20 0 11 -4 20 -9 20 -5 0
-7 -9 -4 -19z m-87 -41 c0 -5 -5 -10 -11 -10 -5 0 -7 5 -4 10 3 6 8 10 11 10
2 0 4 -4 4 -10z m130 -74 c0 -6 -7 -1 -15 10 -8 10 -14 26 -14 34 0 16 28 -28
29 -44z m-40 -6 c0 -5 -2 -10 -4 -10 -3 0 -8 5 -11 10 -3 6 -1 10 4 10 6 0 11
-4 11 -10z m110 -4 c0 -3 -4 -8 -10 -11 -5 -3 -10 -1 -10 4 0 6 5 11 10 11 6
0 10 -2 10 -4z m-50 -16 c0 -5 -2 -10 -4 -10 -3 0 -8 5 -11 10 -3 6 -1 10 4
10 6 0 11 -4 11 -10z m-105 -10 c3 -5 2 -10 -4 -10 -5 0 -13 5 -16 10 -3 6 -2
10 4 10 5 0 13 -4 16 -10z m195 -10 c0 -5 -9 -6 -20 -3 -11 3 -17 9 -15 14 7
10 35 1 35 -11z"/>
<path d="M6650 3195 c0 -8 5 -15 10 -15 6 0 10 7 10 15 0 8 -4 15 -10 15 -5 0
-10 -7 -10 -15z"/>
<path d="M6262 3175 c0 -16 2 -22 5 -12 2 9 2 23 0 30 -3 6 -5 -1 -5 -18z"/>
<path d="M6805 3191 c-3 -5 -2 -12 3 -15 5 -3 9 1 9 9 0 17 -3 19 -12 6z"/>
<path d="M6478 3183 c7 -3 16 -2 19 1 4 3 -2 6 -13 5 -11 0 -14 -3 -6 -6z"/>
<path d="M5530 3170 c0 -5 5 -10 10 -10 6 0 10 5 10 10 0 6 -4 10 -10 10 -5 0
-10 -4 -10 -10z"/>
<path d="M5620 3145 c0 -21 -5 -25 -32 -26 -24 -1 -27 -3 -10 -6 12 -2 22 -12
23 -21 0 -13 3 -11 12 6 8 17 17 22 34 19 22 -4 22 -3 8 13 -8 9 -15 22 -15
28 0 7 -4 12 -10 12 -5 0 -10 -11 -10 -25z"/>
<path d="M5676 3162 c-3 -6 -1 -14 5 -17 15 -10 25 3 12 16 -7 7 -13 7 -17 1z"/>
<path d="M6285 3160 c-3 -5 -1 -10 4 -10 6 0 11 5 11 10 0 6 -2 10 -4 10 -3 0
-8 -4 -11 -10z"/>
<path d="M6323 3150 c3 -11 1 -20 -4 -20 -5 0 -9 -8 -10 -17 0 -14 -3 -13 -11
5 -11 22 -28 30 -28 14 0 -13 34 -42 49 -42 7 0 9 -6 6 -12 -4 -7 1 -4 9 6 17
21 22 41 7 32 -5 -3 -8 6 -8 19 0 26 12 34 20 13 3 -8 6 -6 6 5 1 11 -6 17
-20 17 -16 0 -20 -5 -16 -20z"/>
<path d="M5405 3150 c-16 -7 -14 -8 12 -7 18 1 33 5 33 10 0 9 -19 8 -45 -3z"/>
<path d="M6781 3143 c-1 -6 -4 -20 -7 -30 -5 -17 -5 -17 6 0 6 10 9 23 6 30
-3 9 -5 9 -5 0z"/>
<path d="M5758 3073 c6 -2 18 -2 25 0 6 3 1 5 -13 5 -14 0 -19 -2 -12 -5z"/>
<path d="M5678 3063 c7 -3 16 -2 19 1 4 3 -2 6 -13 5 -11 0 -14 -3 -6 -6z"/>
<path d="M7905 2994 c-206 -37 -679 -190 -880 -285 -92 -43 -231 -120 -326
-181 -468 -299 -725 -420 -1034 -488 -143 -31 -390 -32 -485 -1 -55 18 -90 21
-230 21 -231 0 -417 36 -655 127 -110 42 -375 178 -520 268 -151 93 -342 187
-467 228 -265 89 -555 87 -810 -6 -71 -25 -158 -73 -158 -86 0 -31 365 -371
545 -507 492 -373 1031 -601 1682 -713 236 -41 430 -55 653 -48 290 9 498 35
736 93 324 77 551 161 849 312 497 254 937 622 1270 1066 62 83 120 166 129
184 l17 32 -118 -1 c-65 0 -154 -7 -198 -15z m-1185 -754 c33 -17 43 -47 30
-85 -10 -30 -16 -35 -44 -35 -62 0 -93 74 -46 112 26 21 34 22 60 8z m-593
-332 c29 -27 31 -80 3 -108 -27 -27 -52 -25 -89 6 -37 31 -40 68 -9 101 27 29
65 29 95 1z"/>
<path d="M5896 2903 c-2 -3 -2 -12 1 -20 5 -12 7 -12 14 -1 6 9 8 6 6 -10 -2
-26 -1 -26 -22 -6 -17 17 -34 10 -39 -17 -7 -45 -228 -333 -323 -421 -131
-121 -250 -236 -271 -260 l-22 -26 157 4 c203 6 292 18 430 60 211 64 404 161
692 348 119 78 133 90 128 112 -5 29 1 32 11 4 10 -27 36 -10 27 19 -3 12 -11
19 -16 16 -5 -4 -9 -1 -9 4 0 17 14 13 33 -9 14 -17 21 -18 37 -10 11 6 20 18
20 26 0 8 5 12 10 9 6 -3 10 -2 10 4 0 16 -18 22 -23 9 -4 -10 -7 -10 -15 0
-5 8 -13 13 -18 12 -5 -1 -10 3 -12 8 -2 6 5 8 15 6 10 -3 29 6 43 18 14 13
24 22 21 20 -2 -1 -12 5 -22 14 -18 16 -55 12 -45 -4 8 -13 -11 -35 -24 -27
-9 6 -9 9 1 16 11 7 11 9 1 9 -8 0 -5 8 8 22 11 12 20 25 20 29 0 9 48 18 52
10 2 -4 12 2 22 13 19 19 19 19 -5 12 -99 -29 -226 -40 -431 -40 -146 1 -215
-2 -211 -9 4 -6 1 -7 -7 -2 -7 4 -16 2 -21 -6 -4 -7 -11 -10 -15 -6 -4 4 1 14
12 22 18 14 18 14 -6 14 -25 -1 -102 13 -172 30 -20 5 -39 7 -42 4z m61 -31
c-13 -3 -17 -10 -13 -24 3 -15 2 -18 -6 -10 -16 16 0 52 20 44 15 -6 15 -7 -1
-10z m61 -9 c-21 -5 -23 -17 -5 -35 12 -11 12 -16 1 -26 -8 -7 -15 -8 -19 -2
-3 6 0 10 7 10 8 0 6 5 -5 11 -13 8 -15 14 -7 30 6 10 18 18 28 18 16 -1 16
-2 0 -6z m-48 -23 c0 -11 -2 -20 -4 -20 -2 0 -6 9 -9 20 -3 11 -1 20 4 20 5 0
9 -9 9 -20z m106 8 c-10 -6 -22 -6 -26 -2 -5 5 3 10 18 11 22 1 24 0 8 -9z
m624 2 c0 -5 -4 -10 -9 -10 -6 0 -13 5 -16 10 -3 6 1 10 9 10 9 0 16 -4 16
-10z m-529 -14 c-6 -7 -9 -22 -5 -32 5 -18 5 -18 -6 -1 -9 14 -15 15 -31 6
-11 -6 -28 -7 -37 -3 -27 12 -37 10 -44 -6 -5 -11 -7 -9 -7 7 -1 12 -7 23 -13
26 -7 2 4 3 24 3 22 -1 38 -6 38 -13 0 -12 10 -12 48 1 12 4 22 12 22 17 0 5
5 9 11 9 8 0 8 -4 0 -14z m69 -1 c0 -2 -6 -8 -13 -14 -10 -8 -14 -7 -14 2 0 8
6 14 14 14 7 0 13 -1 13 -2z m104 -4 c-2 -2 2 -13 8 -24 11 -21 10 -21 -15 -4
-22 14 -27 14 -37 2 -7 -8 -16 -12 -21 -9 -14 8 -11 24 4 22 6 -2 11 2 10 8
-1 6 11 11 27 10 15 -1 27 -3 24 -5z m51 -21 c0 -15 -5 -27 -12 -27 -6 0 -9 6
-6 13 2 6 -1 15 -6 19 -14 8 -7 22 11 22 7 0 13 -12 13 -27z m53 16 c-7 -8
-16 -12 -21 -9 -11 7 2 23 19 23 12 0 12 -2 2 -14z m122 4 c0 -5 -5 -10 -11
-10 -5 0 -7 5 -4 10 3 6 8 10 11 10 2 0 4 -4 4 -10z m31 -10 c6 0 7 5 4 10 -4
7 6 10 29 8 19 -1 33 -5 30 -9 -2 -4 -14 -5 -26 -1 -16 4 -19 2 -13 -8 5 -9 4
-11 -3 -6 -7 4 -12 2 -12 -5 0 -8 -4 -8 -15 1 -8 7 -15 18 -14 24 0 7 2 6 6
-1 2 -7 9 -13 14 -13z m-350 -17 c-12 -20 -14 -14 -5 12 4 9 9 14 11 11 3 -2
0 -13 -6 -23z m244 17 c3 -5 2 -10 -4 -10 -5 0 -13 5 -16 10 -3 6 -2 10 4 10
5 0 13 -4 16 -10z m-415 -30 c0 -6 9 -6 26 1 15 5 29 7 32 4 3 -3 0 -5 -6 -5
-7 0 -11 -5 -9 -12 4 -20 -39 -17 -52 3 -7 12 -7 19 -1 19 5 0 10 -4 10 -10z
m150 0 c0 -5 -5 -10 -11 -10 -5 0 -7 5 -4 10 3 6 8 10 11 10 2 0 4 -4 4 -10z
m270 -11 c0 -14 -17 -10 -23 5 -4 10 -1 13 9 9 7 -3 14 -9 14 -14z m258 14
c-10 -2 -18 -9 -18 -15 0 -6 -3 -9 -6 -5 -10 10 6 27 24 26 15 -1 15 -2 0 -6z
m-428 -10 c-1 -24 -16 -31 -35 -16 -19 15 -19 15 4 8 16 -5 21 -4 17 4 -4 6
-2 11 3 11 6 0 11 -3 11 -7z m78 -19 c-12 -12 -17 -13 -23 -3 -5 8 -4 10 4 5
6 -4 14 0 17 9 4 9 9 13 12 10 3 -3 -1 -13 -10 -21z m-239 -27 c0 -9 -2 -8 -6
1 -2 6 -10 9 -15 6 -7 -4 -8 -2 -4 5 9 13 26 5 25 -12z m511 20 c0 -2 -8 -12
-19 -21 -17 -15 -19 -15 -25 -1 -3 9 -2 14 2 11 4 -2 14 -1 22 5 16 10 20 11
20 6z m-55 -29 c5 4 5 1 1 -6 -6 -9 -11 -10 -20 -3 -7 6 -17 7 -21 3 -5 -4 -5
-1 -1 6 6 9 11 10 20 3 7 -6 17 -7 21 -3z m80 2 c3 -5 1 -10 -4 -10 -6 0 -11
5 -11 10 0 6 2 10 4 10 3 0 8 -4 11 -10z m35 -21 c0 -5 -4 -9 -10 -9 -5 0 -10
7 -10 16 0 8 5 12 10 9 6 -3 10 -10 10 -16z"/>
<path d="M6726 2851 c-3 -5 5 -11 19 -13 20 -4 23 -3 14 8 -13 16 -25 18 -33
5z"/>
<path d="M6792 2790 c-7 -12 -8 -20 -2 -20 5 0 10 5 10 11 0 5 5 7 10 4 6 -4
8 -11 5 -16 -4 -5 -2 -9 3 -9 6 0 12 7 16 15 3 8 0 14 -7 12 -7 -1 -11 4 -9
11 3 19 -12 14 -26 -8z"/>
<path d="M6860 2799 c0 -5 5 -7 10 -4 6 3 10 8 10 11 0 2 -4 4 -10 4 -5 0 -10
-5 -10 -11z"/>
</g>
</svg>
